HIERARCHY
ROOT joint_0
{
	OFFSET 0.000000 0.000000 0.000000
	CHANNELS 6 Xposition Yposition Zposition Zrotation Yrotation Xrotation 
	JOINT joint_1
	{
		OFFSET 1.363060 -1.794630 0.839290
		CHANNELS 3 Zrotation Yrotation Xrotation
		JOINT joint_2
		{
			OFFSET 2.448110 -6.726130 0.000000
			CHANNELS 3 Zrotation Yrotation Xrotation
			JOINT joint_3
			{
				OFFSET 2.562200 -7.039590 0.000000
				CHANNELS 3 Zrotation Yrotation Xrotation
				JOINT joint_4
				{
					OFFSET 0.157640 -0.433110 2.322550
					CHANNELS 3 Zrotation Yrotation Xrotation
					End Site
					{
						OFFSET 0.000000 0.000000 0.000000
					}
				}
			}
		}
	}
	JOINT joint_5
	{
		OFFSET -1.305520 -1.794630 0.839290
		CHANNELS 3 Zrotation Yrotation Xrotation
		JOINT joint_6
		{
			OFFSET -2.542530 -6.985550 0.000000
			CHANNELS 3 Zrotation Yrotation Xrotation
			JOINT joint_7
			{
				OFFSET -2.568260 -7.056230 0.000000
				CHANNELS 3 Zrotation Yrotation Xrotation
				JOINT joint_8
				{
					OFFSET -0.164730 -0.452590 2.363150
					CHANNELS 3 Zrotation Yrotation Xrotation
					End Site
					{
						OFFSET 0.000000 0.000000 0.000000
					}
				}
			}
		}
	}
	JOINT joint_9
	{
		OFFSET 0.028270 2.035590 -0.193380
		CHANNELS 3 Zrotation Yrotation Xrotation
		JOINT joint_10
		{
			OFFSET 0.056720 4.548850 -0.042750
			CHANNELS 3 Zrotation Yrotation Xrotation
			JOINT joint_11
			{
				OFFSET -0.054170 1.746240 0.172020
				CHANNELS 3 Zrotation Yrotation Xrotation
				JOINT joint_12
				{
					OFFSET 0.104070 1.761360 -0.123970
					CHANNELS 3 Zrotation Yrotation Xrotation
					End Site
					{
						OFFSET 0.000000 0.000000 0.000000
					}
				}
			}
			JOINT joint_13
			{
				OFFSET 3.362410 1.200890 -0.311210
				CHANNELS 3 Zrotation Yrotation Xrotation
				JOINT joint_14
				{
					OFFSET 5.783000 0.000000 0.000000
					CHANNELS 3 Zrotation Yrotation Xrotation
					JOINT joint_15
					{
						OFFSET 6.683559 0.000000 0.000000
						CHANNELS 3 Zrotation Yrotation Xrotation
						JOINT joint_16
						{
							OFFSET 0.000000 0.000000 0.000000
							CHANNELS 3 Zrotation Yrotation Xrotation
							End Site
							{
								OFFSET 0.000000 0.000000 0.000000
							}
						}
					}
				}
			}
			JOINT joint_17
			{
				OFFSET -2.136613 1.374050 -0.404650
				CHANNELS 3 Zrotation Yrotation Xrotation
				JOINT joint_18
				{
					OFFSET -0.741900 0.000000 0.000000
					CHANNELS 3 Zrotation Yrotation Xrotation
					JOINT joint_19
					{
						OFFSET -0.744170 0.000000 0.000000
						CHANNELS 3 Zrotation Yrotation Xrotation
						JOINT joint_20
						{
							OFFSET 0.000000 0.000000 0.000000
							CHANNELS 3 Zrotation Yrotation Xrotation
							End Site
							{
								OFFSET 0.000000 0.000000 0.000000
							}
						}
					}
				}
			}
		}
	}
}
MOTION
Frames: 15
Frame Time: 0.031667
0.383414 16.863363 -1.810240 -1.405944 0.763194 0.967095 -20.342199 4.794901 -0.917254 -0.080206 -2.206577 2.051084 -1.001469 -0.910604 -2.266861 1.587594 -1.809669 0.072376 28.077526 -2.239443 2.529687 -2.148612 0.195016 -0.997005 0.773245 1.058483 -5.553868 -0.274294 0.468833 -0.031080 1.217596 -0.061296 -10.685511 -1.039340 -0.186154 53.969093 4.354694 -1.005340 17.983273 0.000000 0.000000 11.000000 -13.956398 -3.000860 3.065469 6.627491 -6.583522 -28.862745 9.077377 6.061417 -0.504491 0.000000 0.000000 0.000000 12.783438 1.947636 0.584718 -12.893580 9.074677 -42.620838 -11.445663 -10.983889 -0.611614 0.000000 0.000000 0.000003 
0.383318 16.859610 -1.817252 -1.379972 0.747692 0.969901 -20.334612 5.024132 -0.840910 -0.526290 -2.967726 1.828243 -1.010567 -0.763617 -2.029090 1.881879 0.425038 -1.105340 28.014126 -2.209166 2.337446 -2.079474 0.107303 -0.529470 0.766170 1.176601 -5.770141 -0.351790 0.400400 -0.161787 1.204794 -0.098695 -10.691444 -1.112042 -0.221682 53.845608 4.426642 -1.064512 18.247910 -0.102540 0.017522 10.526800 -13.981406 -2.922017 2.964475 6.662111 -6.706792 -28.886587 9.265783 6.038745 -0.495963 0.000000 0.000000 0.000000 12.690103 2.423733 -0.022480 -12.819429 8.671524 -43.529095 -13.170349 -11.456704 -0.483060 0.000000 0.000000 0.000003 
0.359751 16.856756 -1.922252 -1.278687 2.231196 1.264987 -20.780697 4.149858 -1.783930 -0.056868 -2.689299 3.072567 -1.029017 -0.716376 -1.869849 2.614575 -1.664087 -0.499807 27.539509 -2.628452 1.496254 -1.492119 -0.598984 0.448841 0.795554 1.429512 -6.340481 0.335642 -0.446575 0.114035 1.337375 -0.642014 -10.595467 -0.535036 -1.323544 51.558159 4.418858 -1.004307 17.974165 -0.113387 0.144841 11.195436 -14.373367 -2.679836 3.235465 6.803190 -6.700005 -28.583925 8.355064 5.906607 -0.521679 0.000000 0.000000 0.000000 12.740112 3.300689 -0.371735 -13.215935 7.992357 -44.760536 -13.601515 -11.671449 -0.450735 0.000000 0.000000 0.000003 
0.356616 16.846096 -1.948889 -0.875224 1.924792 0.723241 -21.683746 4.064698 -0.975305 0.323689 -2.318359 2.949588 -1.046511 -0.706733 -1.842869 2.433949 -1.327746 -0.564011 27.050385 -2.839099 1.406899 -1.817342 -0.583852 2.010172 0.759648 1.678888 -6.926825 0.248659 -0.285820 0.112302 1.357534 -0.299822 -10.153146 0.576720 -1.374483 51.147038 3.726771 -0.783158 18.144180 0.214663 -0.204067 10.371166 -14.684033 -3.232415 2.937849 6.477984 -6.470862 -28.174717 8.276744 5.681707 -0.509325 0.000000 0.000000 0.000000 12.420301 2.436917 -0.235748 -12.841280 8.627767 -43.374382 -13.142827 -11.081027 -0.475923 0.000000 0.000000 0.000003 
0.352688 16.855104 -1.909324 -1.206381 1.764283 0.913657 -21.019844 4.289357 -1.233621 0.038439 -2.478854 2.853601 -1.033581 -0.721778 -1.851576 2.546985 -1.532525 -0.526264 27.509132 -2.503646 1.696931 -1.891898 -0.345630 1.009292 0.766235 1.484878 -6.497262 0.365272 -0.595907 0.056080 1.449864 -0.208607 -10.524488 0.777948 -1.178899 51.790100 0.050955 0.225723 20.633249 7.828154 -2.907210 6.170202 -14.531854 -3.092163 2.820138 6.525671 -6.467774 -28.199785 8.459211 5.641906 -0.500326 0.000000 0.000000 0.000000 12.583459 2.145685 -0.015613 -13.096249 8.825076 -43.491879 -13.232041 -11.167133 -0.470680 0.000000 0.000000 0.000003 
0.353326 16.855556 -1.907733 -1.240121 1.724975 0.923689 -20.951935 4.313489 -1.249736 0.020698 -2.449924 2.802987 -1.030385 -0.718849 -1.841684 2.468659 -1.430108 -0.534437 27.547155 -2.465367 1.724589 -1.915864 -0.445770 0.862115 0.780601 1.464860 -6.447890 0.367847 -0.566858 0.077042 1.465968 -0.166623 -10.586185 0.870187 -1.142305 51.802414 -0.328557 0.320038 21.070963 8.592810 -3.151901 5.410819 -14.541697 -3.140520 2.739761 6.541148 -6.398271 -28.042854 8.313134 5.495081 -0.500888 0.000000 0.000000 0.000000 12.546851 2.290133 -0.280772 -13.131484 8.531867 -43.309570 -13.504194 -10.856086 -0.441238 0.000000 0.000000 0.000003 
0.353497 16.856457 -1.906577 -1.280150 1.729442 0.936999 -20.891224 4.322002 -1.303164 -0.018219 -2.482664 2.855212 -1.028020 -0.723438 -1.846888 2.564822 -1.408705 -0.591093 27.568844 -2.486093 1.765777 -1.864077 -0.272768 0.831730 0.766404 1.437979 -6.387809 0.325876 -0.666455 -0.033294 1.476031 -0.166963 -10.627796 0.915057 -1.162014 51.847092 -0.559545 0.384755 21.268215 8.990834 -3.281873 5.068965 -14.565966 -3.257717 2.572433 6.528468 -6.263052 -27.876438 8.206145 5.319169 -0.486971 0.000000 0.000000 0.000000 12.437116 2.318192 -0.325502 -12.633766 8.475844 -40.651157 -13.774699 -9.100338 -0.385042 0.000000 0.000000 0.000003 
0.354524 16.854355 -1.908769 -1.262170 1.675628 0.897137 -20.972158 4.301267 -1.244932 0.030989 -2.491576 2.881724 -1.025513 -0.723342 -1.849385 2.652234 -1.345970 -0.662132 27.548731 -2.454559 1.653586 -1.875007 -0.369991 1.080880 0.766130 1.492968 -6.502486 0.304669 -0.463840 0.067481 1.498627 -0.142414 -10.576161 1.064423 -1.181655 51.858028 -0.610236 0.442333 21.044270 8.992590 -3.238002 5.469569 -14.611828 -3.319717 2.504286 6.364402 -6.142891 -27.275553 8.176207 4.840628 -0.455088 0.000000 0.000000 0.000000 12.394796 2.325180 -0.279677 -12.684249 8.490089 -40.831120 -13.485876 -9.192333 -0.405777 0.000000 0.000000 0.000003 
0.355215 16.853754 -1.910480 -1.258266 1.650171 0.888190 -20.939228 4.299074 -1.262380 0.034132 -2.457071 2.885244 -1.023460 -0.720880 -1.845382 2.635780 -1.504942 -0.582147 27.528538 -2.469667 1.710423 -1.876857 -0.320813 0.998413 0.766949 1.466833 -6.436559 0.247871 -0.472240 -0.003500 1.455040 -0.139295 -10.579648 0.778412 -1.122708 51.864334 0.558086 0.022466 20.684639 6.492405 -2.604424 6.150257 -14.564034 -3.260768 2.479622 6.424758 -6.386391 -27.883572 8.531913 5.356474 -0.479109 0.000000 0.000000 0.000000 12.515599 2.212967 -0.329199 -13.078632 8.562851 -43.271095 -13.342054 -10.871466 -0.454619 0.000000 0.000000 0.000003 
0.354847 16.854204 -1.912898 -1.277922 1.673580 0.855423 -20.908943 4.313530 -1.263913 0.045357 -2.369720 2.864783 -1.022118 -0.720878 -1.839852 2.594002 -1.377069 -0.619667 27.536337 -2.521963 1.801887 -1.864524 -0.323339 0.843803 0.773525 1.434873 -6.367734 0.189304 -0.555179 -0.122550 1.456948 -0.154981 -10.564824 0.696517 -1.125526 51.874222 0.915630 -0.109820 20.483669 5.736596 -2.453613 6.492328 -14.520457 -3.246511 2.413067 6.526480 -6.316611 -27.984785 8.347096 5.382637 -0.486778 0.000000 0.000000 0.000000 12.571998 2.179553 -0.306409 -13.161104 8.656110 -43.542549 -13.302608 -11.064370 -0.448070 0.000000 0.000000 0.000003 
0.355467 16.859909 -1.895105 -1.494062 1.709578 1.028775 -20.533266 4.348221 -1.565905 -0.098263 -2.400083 2.858257 -1.022493 -0.729909 -1.831150 2.669677 -1.467115 -0.615809 27.809677 -2.310208 1.881966 -1.859277 -0.300920 0.216863 0.783956 1.331632 -6.137041 0.317921 -0.732422 -0.083433 1.570773 -0.199805 -10.770878 0.791224 -1.192499 52.425049 0.595261 0.002933 20.530563 6.176360 -2.608622 6.433405 -14.566043 -3.050017 2.603525 6.600405 -6.589702 -28.036106 8.462361 5.567873 -0.495316 0.000000 0.000000 0.000000 12.494963 2.268702 -0.425056 -13.237533 8.598358 -43.528233 -13.438562 -11.029175 -0.445541 0.000000 0.000000 0.000003 
0.355698 16.858559 -1.896486 -1.490068 1.658553 0.979278 -20.572203 4.378001 -1.513627 -0.105700 -2.493490 2.935243 -1.021047 -0.730720 -1.837916 2.718180 -1.473699 -0.636496 27.840860 -2.291600 1.841250 -1.862936 -0.228368 0.457974 0.767165 1.363911 -6.211174 0.388414 -0.714756 0.009250 1.536242 -0.217891 -10.709921 0.577745 -1.145660 52.391846 0.940634 -0.111545 20.523067 5.646528 -2.378182 6.411055 -14.492068 -3.046396 2.444046 6.543739 -6.494952 -27.996681 8.384143 5.532794 -0.495620 0.000000 0.000000 0.000000 12.540808 2.428517 -0.407878 -13.129185 8.462810 -43.505650 -13.386546 -11.005574 -0.446568 0.000000 0.000000 0.000003 
0.356209 16.859009 -1.897598 -1.467705 1.612175 0.967268 -20.621304 4.355804 -1.480227 -0.065145 -2.424557 2.882588 -1.020284 -0.731632 -1.837784 2.706040 -1.439539 -0.646012 27.808350 -2.304065 1.837774 -1.868788 -0.190350 0.479715 0.763759 1.366075 -6.215627 0.453211 -0.826696 0.014875 1.536501 -0.185716 -10.711262 0.642550 -1.133446 52.386841 0.890325 -0.082143 20.513439 5.667106 -2.366171 6.495262 -14.497221 -3.043981 2.518244 6.516948 -6.529450 -27.953463 8.380322 5.551932 -0.497032 0.000000 0.000000 0.000000 12.538238 2.413917 -0.438104 -13.175525 8.500504 -43.468212 -13.365550 -10.975162 -0.455127 0.000000 0.000000 0.000003 
0.356011 16.859159 -1.899114 -1.498228 1.643050 0.943425 -20.554411 4.394757 -1.506756 -0.111194 -2.380488 2.905639 -1.020089 -0.731045 -1.828653 2.706733 -1.478901 -0.628565 27.827181 -2.308996 1.860928 -1.870686 -0.341198 0.361924 0.779704 1.354776 -6.185714 0.376748 -0.568910 0.086093 1.541352 -0.151373 -10.723776 0.700521 -1.120839 52.375031 0.787911 -0.085694 20.567274 5.758361 -2.562622 6.573843 -14.534875 -3.190888 1.987928 6.400884 -6.348539 -27.680120 8.308287 5.284754 -0.481428 0.000000 0.000000 0.000000 12.493517 2.450183 -0.689929 -13.134318 8.469786 -43.540466 -13.468382 -11.021872 -0.447824 0.000000 0.000000 0.000003 
0.357096 16.857958 -1.897973 -1.507732 1.614423 0.943045 -20.558996 4.401234 -1.490868 -0.113938 -2.503578 2.963354 -1.019558 -0.730498 -1.831471 2.831293 -1.543848 -0.660034 27.866034 -2.260156 1.841196 -1.890444 -0.304504 0.453502 0.773840 1.369392 -6.220385 0.402522 -0.631734 0.077089 1.546038 -0.147277 -10.718887 0.669892 -1.105305 52.453251 0.987861 -0.143368 20.455748 5.346764 -2.410287 6.675563 -14.543100 -3.046801 2.635326 6.441808 -6.550298 -27.682800 8.305447 5.428562 -0.491225 0.000000 0.000000 0.000000 12.491430 2.429686 -0.600074 -13.128596 8.485707 -43.380711 -13.238398 -10.934149 -0.464464 0.000000 0.000000 0.000003 
